<?xml version="1.0" encoding="UTF-8" standalone="no"?>
<svg width="587px" height="589px" viewBox="0 0 587 589" version="1.1" xmlns="http://www.w3.org/2000/svg" xmlns:xlink="http://www.w3.org/1999/xlink">
    <!-- Generator: Sketch 3.6.1 (26313) - http://www.bohemiancoding.com/sketch -->
    <title>Stakeholder Axis</title>
    <desc>Created with Sketch.</desc>
    <defs></defs>
    <g id="Page-1" stroke="none" stroke-width="1" fill="none" fill-rule="evenodd">
        <g id="Single-Page-Stakeholder-Management---Empty-error" transform="translate(-327.000000, -45.000000)">
            <g id="Stakeholder-Axis" transform="translate(327.000000, 46.000000)">
                <path d="M9.5162116,0 L9.5162116,576.981261" id="Line" stroke="#DADADA" stroke-linecap="square"></path>
                <path d="M585.49744,577.982964 L9.5162116,577.982964" id="Line" stroke="#DADADA" stroke-linecap="square"></path>
                <rect id="Rectangle-190" fill="#F9F9F9" x="280.477816" y="567.965928" width="62.105802" height="20.0340716"></rect>
                <polygon id="Triangle-1" fill="#DADADA" points="9.5162116 0 13.5230375 8.01362862 5.50938567 8.01362862 "></polygon>
                <rect id="Rectangle-191" fill="#F9F9F9" x="0" y="225.383305" width="19.0324232" height="109.18569"></rect>
                <path d="M-36.1342952,281.322289 L-36.1342952,283.967632 L-37.3713966,283.967632 L-37.3713966,276.848187 L-34.6478177,276.848187 C-33.8524179,276.848187 -33.2208342,277.055184 -32.7530478,277.469183 C-32.2852615,277.883182 -32.0513718,278.430826 -32.0513718,279.112131 C-32.0513718,279.809736 -32.2803718,280.352491 -32.7383787,280.740411 C-33.1963855,281.128332 -33.8377485,281.322289 -34.6624869,281.322289 L-36.1342952,281.322289 Z M-36.1342952,280.329674 L-34.6478177,280.329674 C-34.2077399,280.329674 -33.8719819,280.226176 -33.6405336,280.019176 C-33.4090853,279.812177 -33.2933629,279.513091 -33.2933629,279.121911 C-33.2933629,278.73725 -33.4107152,278.430015 -33.6454233,278.200197 C-33.8801315,277.970379 -34.2028503,277.852211 -34.6135896,277.845692 L-36.1342952,277.845692 L-36.1342952,280.329674 Z M-25.288877,280.593719 C-25.288877,281.291324 -25.4094891,281.903349 -25.650717,282.429812 C-25.8919448,282.956276 -26.2366672,283.360489 -26.6848946,283.642465 C-27.1331219,283.924441 -27.6489832,284.065427 -28.2324937,284.065427 C-28.8094846,284.065427 -29.3237159,283.924441 -29.7752031,283.642465 C-30.2266903,283.360489 -30.5754874,282.958721 -30.821605,282.437147 C-31.0677226,281.915573 -31.1924094,281.314143 -31.1956693,280.632837 L-31.1956693,280.231879 C-31.1956693,279.537534 -31.0726123,278.924695 -30.8264947,278.393341 C-30.5803772,277.861988 -30.2332099,277.45533 -29.7849825,277.173354 C-29.3367552,276.891378 -28.8225238,276.750393 -28.2422731,276.750393 C-27.6620224,276.750393 -27.1477911,276.889748 -26.6995638,277.168464 C-26.2513364,277.44718 -25.9049841,277.848134 -25.6604964,278.371338 C-25.4160088,278.894541 -25.2921369,279.503306 -25.288877,280.197651 L-25.288877,280.593719 Z M-26.5259784,280.2221 C-26.5259784,279.43322 -26.6751136,278.828529 -26.9733886,278.408011 C-27.2716635,277.987492 -27.6946208,277.777236 -28.2422731,277.777236 C-28.7768862,277.777236 -29.1949538,277.986677 -29.4964885,278.405566 C-29.7980233,278.824455 -29.9520482,279.416921 -29.9585679,280.182982 L-29.9585679,280.593719 C-29.9585679,281.37608 -29.8061729,281.98077 -29.5013783,282.407809 C-29.1965837,282.834847 -28.7736264,283.048363 -28.2324937,283.048363 C-27.6848413,283.048363 -27.2635139,282.839737 -26.9684988,282.422478 C-26.6734837,282.005219 -26.5259784,281.395639 -26.5259784,280.593719 L-26.5259784,280.2221 Z M-18.4725953,282.20733 L-17.3772961,276.848187 L-16.1499742,276.848187 L-17.792923,283.967632 L-18.9762373,283.967632 L-20.3306922,278.76985 L-21.7144854,283.967632 L-22.9026894,283.967632 L-24.5456383,276.848187 L-23.3183164,276.848187 L-22.2132377,282.19755 L-20.8538931,276.848187 L-19.8172707,276.848187 L-18.4725953,282.20733 Z M-11.0842153,280.789308 L-14.008273,280.789308 L-14.008273,282.979907 L-10.5903527,282.979907 L-10.5903527,283.967632 L-15.2453744,283.967632 L-15.2453744,276.848187 L-10.6245808,276.848187 L-10.6245808,277.845692 L-14.008273,277.845692 L-14.008273,279.811363 L-11.0842153,279.811363 L-11.0842153,280.789308 Z M-6.96706373,281.224494 L-8.34596721,281.224494 L-8.34596721,283.967632 L-9.58306856,283.967632 L-9.58306856,276.848187 L-7.07952748,276.848187 C-6.25804896,276.848187 -5.62402049,277.032365 -5.17742303,277.400726 C-4.73082558,277.769088 -4.50753021,278.302063 -4.50753021,278.999668 C-4.50753021,279.475604 -4.62243768,279.874113 -4.85225608,280.195206 C-5.08207447,280.5163 -5.4023485,280.763229 -5.81308776,280.936 L-4.21414649,283.904066 L-4.21414649,283.967632 L-5.53926296,283.967632 L-6.96706373,281.224494 Z M-8.34596721,280.231879 L-7.07463776,280.231879 C-6.65737882,280.231879 -6.33140017,280.126751 -6.09669202,279.916492 C-5.86198387,279.706232 -5.74463156,279.418556 -5.74463156,279.053455 C-5.74463156,278.672054 -5.85301946,278.377043 -6.06979852,278.168414 C-6.28657757,277.959784 -6.61011138,277.852211 -7.04040966,277.845692 L-8.34596721,277.845692 L-8.34596721,280.231879 Z M-0.620195918,284.578848 L-1.55413409,284.578848 L1.24768043,276.848187 L2.18161861,276.848187 L-0.620195918,284.578848 Z M6.91976568,283.967632 L5.68755406,283.967632 L5.68755406,276.848187 L6.91976568,276.848187 L6.91976568,283.967632 Z M14.0881079,283.967632 L12.8510066,283.967632 L9.67757265,278.916542 L9.67757265,283.967632 L8.4404713,283.967632 L8.4404713,276.848187 L9.67757265,276.848187 L12.860786,281.918836 L12.860786,276.848187 L14.0881079,276.848187 L14.0881079,283.967632 Z M19.6526191,280.950669 L16.7872381,280.950669 L16.7872381,283.967632 L15.5501368,283.967632 L15.5501368,276.848187 L20.0731358,276.848187 L20.0731358,277.845692 L16.7872381,277.845692 L16.7872381,279.962944 L19.6526191,279.962944 L19.6526191,280.950669 Z M22.2881829,282.979907 L25.5202935,282.979907 L25.5202935,283.967632 L21.0510815,283.967632 L21.0510815,276.848187 L22.2881829,276.848187 L22.2881829,282.979907 Z M31.5591084,276.848187 L31.5591084,281.605893 C31.5591084,282.362175 31.3170693,282.961161 30.8329837,283.402868 C30.3488982,283.844576 29.7042754,284.065427 28.899096,284.065427 C28.0841372,284.065427 27.4370696,283.847836 26.9578738,283.412648 C26.4786779,282.97746 26.2390836,282.373584 26.2390836,281.601003 L26.2390836,276.848187 L27.4712953,276.848187 L27.4712953,281.610783 C27.4712953,282.086719 27.5919074,282.450185 27.8331352,282.701192 C28.074363,282.9522 28.4296797,283.077701 28.899096,283.077701 C29.850968,283.077701 30.3268968,282.575694 30.3268968,281.571665 L30.3268968,276.848187 L31.5591084,276.848187 Z M37.0404943,280.789308 L34.1164365,280.789308 L34.1164365,282.979907 L37.5343569,282.979907 L37.5343569,283.967632 L32.8793352,283.967632 L32.8793352,276.848187 L37.5001288,276.848187 L37.5001288,277.845692 L34.1164365,277.845692 L34.1164365,279.811363 L37.0404943,279.811363 L37.0404943,280.789308 Z M44.1892776,283.967632 L42.9521762,283.967632 L39.7787423,278.916542 L39.7787423,283.967632 L38.541641,283.967632 L38.541641,276.848187 L39.7787423,276.848187 L42.9619557,281.918836 L42.9619557,276.848187 L44.1892776,276.848187 L44.1892776,283.967632 Z M51.083795,281.649901 C51.0120786,282.409442 50.731737,283.001908 50.2427617,283.427317 C49.7537863,283.852726 49.1034589,284.065427 48.2917599,284.065427 C47.7245486,284.065427 47.2249863,283.93096 46.7930581,283.662024 C46.3611299,283.393088 46.0278167,283.010878 45.7931086,282.515383 C45.5584004,282.019888 45.4361584,281.444535 45.4263789,280.789308 L45.4263789,280.124305 C45.4263789,279.452779 45.5453611,278.861128 45.7833291,278.349334 C46.0212971,277.83754 46.3627597,277.443105 46.8077273,277.166019 C47.2526948,276.888933 47.7669261,276.750393 48.3504367,276.750393 C49.136057,276.750393 49.7684556,276.963909 50.2476514,277.390947 C50.7268472,277.817985 51.0055589,278.421046 51.083795,279.200147 L49.8515834,279.200147 C49.7929063,278.688352 49.6437711,278.319182 49.4041732,278.092623 C49.1645753,277.866064 48.8133333,277.752787 48.3504367,277.752787 C47.8125638,277.752787 47.3993859,277.949189 47.1108904,278.341999 C46.822395,278.734809 46.6748897,279.310977 46.66837,280.070518 L46.66837,280.701293 C46.66837,281.470614 46.806096,282.057376 47.0815521,282.461596 C47.3570082,282.865815 47.7604067,283.067922 48.2917599,283.067922 C48.7774754,283.067922 49.1425715,282.958719 49.3870591,282.74031 C49.6315468,282.521901 49.7863867,282.158435 49.8515834,281.649901 L51.083795,281.649901 Z M56.3500328,280.789308 L53.425975,280.789308 L53.425975,282.979907 L56.8438954,282.979907 L56.8438954,283.967632 L52.1888737,283.967632 L52.1888737,276.848187 L56.8096673,276.848187 L56.8096673,277.845692 L53.425975,277.845692 L53.425975,279.811363 L56.3500328,279.811363 L56.3500328,280.789308 Z" id="Power-/-Influence" fill="#6A6A6A" transform="translate(9.878052, 280.664620) rotate(-90.000000) translate(-9.878052, -280.664620) "></path>
                <path d="M291.77797,581.974446 L290.545758,581.974446 L290.545758,574.855001 L291.77797,574.855001 L291.77797,581.974446 Z M298.946312,581.974446 L297.709211,581.974446 L294.535777,576.923357 L294.535777,581.974446 L293.298676,581.974446 L293.298676,574.855001 L294.535777,574.855001 L297.71899,579.92565 L297.71899,574.855001 L298.946312,574.855001 L298.946312,581.974446 Z M305.410533,575.852506 L303.190597,575.852506 L303.190597,581.974446 L301.963275,581.974446 L301.963275,575.852506 L299.762897,575.852506 L299.762897,574.855001 L305.410533,574.855001 L305.410533,575.852506 Z M310.505631,578.796123 L307.581573,578.796123 L307.581573,580.986721 L310.999493,580.986721 L310.999493,581.974446 L306.344472,581.974446 L306.344472,574.855001 L310.965265,574.855001 L310.965265,575.852506 L307.581573,575.852506 L307.581573,577.818177 L310.505631,577.818177 L310.505631,578.796123 Z M314.622782,579.231309 L313.243879,579.231309 L313.243879,581.974446 L312.006777,581.974446 L312.006777,574.855001 L314.510318,574.855001 C315.331797,574.855001 315.965825,575.039179 316.412423,575.407541 C316.85902,575.775902 317.082316,576.308877 317.082316,577.006482 C317.082316,577.482418 316.967408,577.880927 316.73759,578.202021 C316.507771,578.523114 316.187497,578.770043 315.776758,578.942815 L317.375699,581.91088 L317.375699,581.974446 L316.050583,581.974446 L314.622782,579.231309 Z M313.243879,578.238694 L314.515208,578.238694 C314.932467,578.238694 315.258446,578.133566 315.493154,577.923306 C315.727862,577.713047 315.845214,577.425371 315.845214,577.060269 C315.845214,576.678868 315.736826,576.383858 315.520047,576.175228 C315.303268,575.966599 314.979735,575.859026 314.549436,575.852506 L313.243879,575.852506 L313.243879,578.238694 Z M322.41701,578.796123 L319.492952,578.796123 L319.492952,580.986721 L322.910872,580.986721 L322.910872,581.974446 L318.255851,581.974446 L318.255851,574.855001 L322.876644,574.855001 L322.876644,575.852506 L319.492952,575.852506 L319.492952,577.818177 L322.41701,577.818177 L322.41701,578.796123 Z M327.63924,580.140798 C327.63924,579.827854 327.529222,579.58663 327.309183,579.417118 C327.089144,579.247607 326.692265,579.076468 326.118534,578.903697 C325.544803,578.730925 325.088433,578.538598 324.74941,578.326709 C324.100703,577.919229 323.776354,577.387884 323.776354,576.732657 C323.776354,576.158926 324.010244,575.686257 324.47803,575.314636 C324.945817,574.943015 325.552952,574.757207 326.299454,574.757207 C326.794949,574.757207 327.23665,574.848481 327.624571,575.031032 C328.012491,575.213582 328.317281,575.47355 328.53895,575.810943 C328.760619,576.148336 328.871452,576.522397 328.871452,576.933136 L327.63924,576.933136 C327.63924,576.561515 327.522703,576.270579 327.289624,576.06032 C327.056546,575.85006 326.723233,575.744932 326.289675,575.744932 C325.885455,575.744932 325.571701,575.831316 325.348402,576.004088 C325.125103,576.176859 325.013456,576.418083 325.013456,576.727767 C325.013456,576.988554 325.134068,577.206145 325.375296,577.380546 C325.616523,577.554947 326.014217,577.724456 326.568389,577.889078 C327.122561,578.0537 327.567522,578.241137 327.903285,578.451397 C328.239048,578.661656 328.485162,578.90288 328.641634,579.175077 C328.798106,579.447273 328.876341,579.765917 328.876341,580.131019 C328.876341,580.724309 328.648971,581.196163 328.194224,581.546595 C327.739477,581.897027 327.122562,582.072241 326.343462,582.072241 C325.828408,582.072241 325.354924,581.976892 324.922996,581.786192 C324.491067,581.595491 324.155309,581.332264 323.915712,580.996501 C323.676114,580.660738 323.556316,580.269563 323.556316,579.822966 L324.793418,579.822966 C324.793418,580.227185 324.927069,580.540125 325.194376,580.761794 C325.461682,580.983462 325.844707,581.094295 326.343462,581.094295 C326.77376,581.094295 327.097294,581.007096 327.314073,580.832695 C327.530852,580.658293 327.63924,580.427664 327.63924,580.140798 L327.63924,580.140798 Z M335.105856,575.852506 L332.885919,575.852506 L332.885919,581.974446 L331.658597,581.974446 L331.658597,575.852506 L329.458219,575.852506 L329.458219,574.855001 L335.105856,574.855001 L335.105856,575.852506 Z" id="INTEREST" fill="#6A6A6A"></path>
                <path d="M577.483788,581.989779 L577.483788,573.97615 L585.49744,577.982964 L577.483788,581.989779 Z" id="Triangle-1" fill="#DADADA"></path>
                <rect id="Rectangle-32" stroke="#DADADA" fill="#FFFFFF" x="313.033276" y="1.00170358" width="273.46587" height="273.465077"></rect>
                <path d="M525.367951,262.902546 L524.365557,263.890271 L524.365557,266.437819 L523.76412,266.437819 L523.76412,259.318374 L524.365557,259.318374 L524.365557,263.156811 L528.013294,259.318374 L528.771202,259.318374 L525.788468,262.486919 L529.001019,266.437819 L528.26756,266.437819 L525.367951,262.902546 Z M534.012991,263.024789 L530.683086,263.024789 L530.683086,265.929288 L534.511744,265.929288 L534.511744,266.437819 L530.081649,266.437819 L530.081649,259.318374 L534.487295,259.318374 L534.487295,259.831796 L530.683086,259.831796 L530.683086,262.516257 L534.012991,262.516257 L534.012991,263.024789 Z M537.866098,263.200819 L540.042027,259.318374 L540.736368,259.318374 L538.164371,263.758248 L538.164371,266.437819 L537.562934,266.437819 L537.562934,263.758248 L534.995827,259.318374 L535.709727,259.318374 L537.866098,263.200819 Z M544.809512,263.53821 L544.809512,266.437819 L544.208076,266.437819 L544.208076,259.318374 L546.633381,259.318374 C547.373364,259.318374 547.95768,259.507442 548.386349,259.885583 C548.815017,260.263724 549.029348,260.78366 549.029348,261.445406 C549.029348,262.113673 548.823167,262.629534 548.410797,262.993006 C547.998428,263.356477 547.401072,263.53821 546.618712,263.53821 L544.809512,263.53821 Z M544.809512,263.029679 L546.633381,263.029679 C547.216892,263.029679 547.661852,262.891138 547.968277,262.614052 C548.274701,262.336966 548.427911,261.950681 548.427911,261.455186 C548.427911,260.962951 548.275516,260.570961 547.970722,260.279206 C547.665927,259.987451 547.233191,259.838316 546.672499,259.831796 L544.809512,259.831796 L544.809512,263.029679 Z M550.98035,265.929288 L554.496065,265.929288 L554.496065,266.437819 L550.374023,266.437819 L550.374023,259.318374 L550.98035,259.318374 L550.98035,265.929288 Z M559.586272,264.44281 L556.354162,264.44281 L555.620702,266.437819 L554.989927,266.437819 L557.684168,259.318374 L558.256266,259.318374 L560.950507,266.437819 L560.324621,266.437819 L559.586272,264.44281 Z M556.539971,263.929389 L559.395573,263.929389 L557.967772,260.051834 L556.539971,263.929389 Z M563.625188,263.200819 L565.801117,259.318374 L566.495459,259.318374 L563.923462,263.758248 L563.923462,266.437819 L563.322025,266.437819 L563.322025,263.758248 L560.754917,259.318374 L561.468818,259.318374 L563.625188,263.200819 Z M571.463423,263.024789 L568.133518,263.024789 L568.133518,265.929288 L571.962175,265.929288 L571.962175,266.437819 L567.532081,266.437819 L567.532081,259.318374 L571.937727,259.318374 L571.937727,259.831796 L568.133518,259.831796 L568.133518,262.516257 L571.463423,262.516257 L571.463423,263.024789 Z M575.888628,263.474644 L573.820272,263.474644 L573.820272,266.437819 L573.213946,266.437819 L573.213946,259.318374 L575.526788,259.318374 C576.286329,259.318374 576.87961,259.502552 577.306649,259.870914 C577.733687,260.239275 577.947203,260.754321 577.947203,261.416068 C577.947203,261.872445 577.813552,262.275029 577.546246,262.623831 C577.278939,262.972633 576.920363,263.213858 576.470505,263.347511 L578.250367,266.374253 L578.250367,266.437819 L577.609812,266.437819 L575.888628,263.474644 Z M573.820272,262.961222 L575.6637,262.961222 C576.168975,262.961222 576.574818,262.817792 576.881243,262.530926 C577.187667,262.244061 577.340877,261.872445 577.340877,261.416068 C577.340877,260.914053 577.181147,260.524509 576.861684,260.247423 C576.54222,259.970337 576.093999,259.831796 575.517008,259.831796 L573.820272,259.831796 L573.820272,262.961222 Z" id="KEY-PLAYER" fill="#6A6A6A"></path>
                <rect id="Rectangle-32" stroke="#DADADA" fill="#FFFFFF" x="313.033276" y="279.475298" width="273.46587" height="273.465077"></rect>
                <path d="M505.417858,541.37614 L504.415464,542.363865 L504.415464,544.911414 L503.814027,544.911414 L503.814027,537.791969 L504.415464,537.791969 L504.415464,541.630406 L508.063201,537.791969 L508.821109,537.791969 L505.838375,540.960513 L509.050926,544.911414 L508.317467,544.911414 L505.417858,541.37614 Z M514.062898,541.498383 L510.732993,541.498383 L510.732993,544.402882 L514.561651,544.402882 L514.561651,544.911414 L510.131557,544.911414 L510.131557,537.791969 L514.537202,537.791969 L514.537202,538.305391 L510.732993,538.305391 L510.732993,540.989852 L514.062898,540.989852 L514.062898,541.498383 Z M519.759432,541.498383 L516.429527,541.498383 L516.429527,544.402882 L520.258185,544.402882 L520.258185,544.911414 L515.82809,544.911414 L515.82809,537.791969 L520.233736,537.791969 L520.233736,538.305391 L516.429527,538.305391 L516.429527,540.989852 L519.759432,540.989852 L519.759432,541.498383 Z M522.126061,542.011805 L522.126061,544.911414 L521.524624,544.911414 L521.524624,537.791969 L523.94993,537.791969 C524.689912,537.791969 525.274229,537.981037 525.702897,538.359178 C526.131566,538.737318 526.345897,539.257254 526.345897,539.919001 C526.345897,540.587267 526.139715,541.103128 525.727346,541.4666 C525.314977,541.830072 524.717621,542.011805 523.935261,542.011805 L522.126061,542.011805 Z M522.126061,541.503273 L523.94993,541.503273 C524.53344,541.503273 524.978401,541.364732 525.284826,541.087646 C525.59125,540.81056 525.74446,540.424275 525.74446,539.92878 C525.74446,539.436545 525.592065,539.044556 525.287271,538.752801 C524.982476,538.461045 524.549739,538.31191 523.989048,538.305391 L522.126061,538.305391 L522.126061,541.503273 Z M530.859116,544.911414 L530.25768,544.911414 L530.25768,537.791969 L530.859116,537.791969 L530.859116,544.911414 Z M538.091025,544.911414 L537.489588,544.911414 L533.396886,538.818812 L533.396886,544.911414 L532.790559,544.911414 L532.790559,537.791969 L533.396886,537.791969 L537.494478,543.889461 L537.494478,537.791969 L538.091025,537.791969 L538.091025,544.911414 Z M543.821787,541.586398 L540.501661,541.586398 L540.501661,544.911414 L539.900225,544.911414 L539.900225,537.791969 L544.31076,537.791969 L544.31076,538.305391 L540.501661,538.305391 L540.501661,541.072977 L543.821787,541.072977 L543.821787,541.586398 Z M550.79454,541.73798 C550.79454,542.393207 550.681263,542.968559 550.454704,543.464054 C550.228145,543.959549 549.904612,544.340944 549.484093,544.608251 C549.063574,544.875557 548.577866,545.009209 548.026954,545.009209 C547.195696,545.009209 546.52418,544.711753 546.012385,544.116833 C545.500591,543.521913 545.244698,542.719191 545.244698,541.708642 L545.244698,540.975182 C545.244698,540.326475 545.359606,539.751938 545.589424,539.251553 C545.819242,538.751168 546.144406,538.366513 546.564925,538.097577 C546.985444,537.828641 547.469522,537.694174 548.017174,537.694174 C548.564827,537.694174 549.04809,537.826196 549.466979,538.090242 C549.885868,538.354289 550.209401,538.727535 550.43759,539.20999 C550.665778,539.692446 550.784761,540.251499 550.79454,540.887167 L550.79454,541.73798 Z M550.193103,540.965403 C550.193103,540.108066 549.999146,539.43655 549.611226,538.950835 C549.223305,538.465119 548.69196,538.222265 548.017174,538.222265 C547.355428,538.222265 546.828157,538.465934 546.435347,538.95328 C546.042537,539.440625 545.846135,540.121105 545.846135,540.994741 L545.846135,541.73798 C545.846135,542.582277 546.041722,543.251349 546.432902,543.745214 C546.824082,544.239079 547.355428,544.486008 548.026954,544.486008 C548.708259,544.486008 549.239604,544.242339 549.621005,543.754993 C550.002406,543.267648 550.193103,542.588797 550.193103,541.718421 L550.193103,540.965403 Z M554.970368,541.948238 L552.902013,541.948238 L552.902013,544.911414 L552.295687,544.911414 L552.295687,537.791969 L554.608528,537.791969 C555.36807,537.791969 555.961351,537.976147 556.38839,538.344508 C556.815428,538.71287 557.028944,539.227916 557.028944,539.889663 C557.028944,540.34604 556.895293,540.748623 556.627986,541.097426 C556.36068,541.446228 556.002103,541.687452 555.552246,541.821105 L557.332107,544.847847 L557.332107,544.911414 L556.691553,544.911414 L554.970368,541.948238 Z M552.902013,541.434817 L554.745441,541.434817 C555.250715,541.434817 555.656559,541.291386 555.962983,541.004521 C556.269408,540.717655 556.422618,540.34604 556.422618,539.889663 C556.422618,539.387648 556.262888,538.998103 555.943424,538.721017 C555.623961,538.443931 555.17574,538.305391 554.598749,538.305391 L552.902013,538.305391 L552.902013,541.434817 Z M559.464029,537.791969 L562.089813,544.07527 L564.725377,537.791969 L565.527293,537.791969 L565.527293,544.911414 L564.925856,544.911414 L564.925856,541.811326 L564.974753,538.633002 L562.32452,544.911414 L561.859996,544.911414 L559.219543,538.657451 L559.26844,541.791767 L559.26844,544.911414 L558.667003,544.911414 L558.667003,537.791969 L559.464029,537.791969 Z M571.262944,541.498383 L567.933039,541.498383 L567.933039,544.402882 L571.761697,544.402882 L571.761697,544.911414 L567.331602,544.911414 L567.331602,537.791969 L571.737248,537.791969 L571.737248,538.305391 L567.933039,538.305391 L567.933039,540.989852 L571.262944,540.989852 L571.262944,541.498383 Z M573.028136,544.911414 L573.028136,537.791969 L575.018256,537.791969 C575.601766,537.791969 576.124962,537.924805 576.587859,538.190482 C577.050755,538.456159 577.411777,538.836739 577.670934,539.332234 C577.930091,539.827729 578.059667,540.391672 578.059667,541.02408 L578.059667,541.679303 C578.059667,542.314971 577.930906,542.878914 577.673379,543.371149 C577.415852,543.863385 577.0532,544.24315 576.585414,544.510456 C576.117628,544.777763 575.580578,544.911414 574.974248,544.911414 L573.028136,544.911414 Z M573.629573,538.305391 L573.629573,544.402882 L574.979138,544.402882 C575.7289,544.402882 576.330331,544.154323 576.783448,543.657199 C577.236565,543.160074 577.46312,542.487743 577.46312,541.640185 L577.46312,541.0143 C577.46312,540.196082 577.239825,539.540864 576.793227,539.048629 C576.34663,538.556394 575.758238,538.30865 575.028035,538.305391 L573.629573,538.305391 Z" id="KEEP-INFORMED" fill="#6A6A6A"></path>
                <rect id="Rectangle-32" stroke="#DADADA" fill="#FFFFFF" x="34.5588737" y="1.00170358" width="273.46587" height="273.465077"></rect>
                <path d="M213.821258,259.318374 L216.447042,265.601676 L219.082606,259.318374 L219.884522,259.318374 L219.884522,266.437819 L219.283085,266.437819 L219.283085,263.337731 L219.331982,260.159408 L216.681749,266.437819 L216.217225,266.437819 L213.576772,260.183856 L213.625669,263.318173 L213.625669,266.437819 L213.024232,266.437819 L213.024232,259.318374 L213.821258,259.318374 Z M225.620173,263.024789 L222.290268,263.024789 L222.290268,265.929288 L226.118926,265.929288 L226.118926,266.437819 L221.688831,266.437819 L221.688831,259.318374 L226.094477,259.318374 L226.094477,259.831796 L222.290268,259.831796 L222.290268,262.516257 L225.620173,262.516257 L225.620173,263.024789 Z M231.316707,263.024789 L227.986802,263.024789 L227.986802,265.929288 L231.815459,265.929288 L231.815459,266.437819 L227.385365,266.437819 L227.385365,259.318374 L231.791011,259.318374 L231.791011,259.831796 L227.986802,259.831796 L227.986802,262.516257 L231.316707,262.516257 L231.316707,263.024789 Z M238.010746,259.831796 L235.570771,259.831796 L235.570771,266.437819 L234.969334,266.437819 L234.969334,259.831796 L232.53425,259.831796 L232.53425,259.318374 L238.010746,259.318374 L238.010746,259.831796 Z M246.03479,259.831796 L243.594816,259.831796 L243.594816,266.437819 L242.993379,266.437819 L242.993379,259.831796 L240.558294,259.831796 L240.558294,259.318374 L246.03479,259.318374 L246.03479,259.831796 Z M252.459894,266.437819 L251.853568,266.437819 L251.853568,263.024789 L247.785313,263.024789 L247.785313,266.437819 L247.183877,266.437819 L247.183877,259.318374 L247.785313,259.318374 L247.785313,262.516257 L251.853568,262.516257 L251.853568,259.318374 L252.459894,259.318374 L252.459894,266.437819 Z M258.200435,263.024789 L254.87053,263.024789 L254.87053,265.929288 L258.699188,265.929288 L258.699188,266.437819 L254.269094,266.437819 L254.269094,259.318374 L258.674739,259.318374 L258.674739,259.831796 L254.87053,259.831796 L254.87053,262.516257 L258.200435,262.516257 L258.200435,263.024789 Z M260.699087,266.437819 L260.09765,266.437819 L260.09765,259.318374 L260.699087,259.318374 L260.699087,266.437819 Z M265.290542,263.474644 L263.222187,263.474644 L263.222187,266.437819 L262.61586,266.437819 L262.61586,259.318374 L264.928702,259.318374 C265.688244,259.318374 266.281525,259.502552 266.708563,259.870914 C267.135602,260.239275 267.349118,260.754321 267.349118,261.416068 C267.349118,261.872445 267.215466,262.275029 266.94816,262.623831 C266.680853,262.972633 266.322277,263.213858 265.87242,263.347511 L267.652281,266.374253 L267.652281,266.437819 L267.011726,266.437819 L265.290542,263.474644 Z M263.222187,262.961222 L265.065614,262.961222 C265.570889,262.961222 265.976732,262.817792 266.283157,262.530926 C266.589581,262.244061 266.742791,261.872445 266.742791,261.416068 C266.742791,260.914053 266.583062,260.524509 266.263598,260.247423 C265.944134,259.970337 265.495913,259.831796 264.918923,259.831796 L263.222187,259.831796 L263.222187,262.961222 Z M276.722728,266.437819 L276.121291,266.437819 L272.028588,260.345218 L272.028588,266.437819 L271.422262,266.437819 L271.422262,259.318374 L272.028588,259.318374 L276.126181,265.415866 L276.126181,259.318374 L276.722728,259.318374 L276.722728,266.437819 Z M282.463269,263.024789 L279.133364,263.024789 L279.133364,265.929288 L282.962021,265.929288 L282.962021,266.437819 L278.531927,266.437819 L278.531927,259.318374 L282.937573,259.318374 L282.937573,259.831796 L279.133364,259.831796 L279.133364,262.516257 L282.463269,262.516257 L282.463269,263.024789 Z M288.159803,263.024789 L284.829898,263.024789 L284.829898,265.929288 L288.658555,265.929288 L288.658555,266.437819 L284.228461,266.437819 L284.228461,259.318374 L288.634107,259.318374 L288.634107,259.831796 L284.829898,259.831796 L284.829898,262.516257 L288.159803,262.516257 L288.159803,263.024789 Z M289.924995,266.437819 L289.924995,259.318374 L291.915115,259.318374 C292.498625,259.318374 293.021821,259.451211 293.484717,259.716887 C293.947614,259.982564 294.308635,260.363144 294.567792,260.858639 C294.826949,261.354134 294.956526,261.918077 294.956526,262.550485 L294.956526,263.205709 C294.956526,263.841377 294.827764,264.40532 294.570237,264.897555 C294.31271,265.38979 293.950059,265.769555 293.482273,266.036862 C293.014486,266.304168 292.477436,266.437819 291.871107,266.437819 L289.924995,266.437819 Z M290.526432,259.831796 L290.526432,265.929288 L291.875997,265.929288 C292.625759,265.929288 293.227189,265.680729 293.680307,265.183604 C294.133424,264.686479 294.359979,264.014148 294.359979,263.166591 L294.359979,262.540706 C294.359979,261.722487 294.136683,261.06727 293.690086,260.575035 C293.243489,260.0828 292.655097,259.835056 291.924894,259.831796 L290.526432,259.831796 Z M300.511258,264.687297 C300.511258,264.292856 300.372717,263.980732 300.095631,263.750914 C299.818545,263.521095 299.311648,263.302689 298.574925,263.09569 C297.838202,262.88869 297.300337,262.66295 296.961314,262.418462 C296.478859,262.07292 296.237635,261.61981 296.237635,261.059118 C296.237635,260.514725 296.461745,260.072209 296.909972,259.731557 C297.3582,259.390904 297.931107,259.22058 298.628712,259.22058 C299.101388,259.22058 299.524345,259.311854 299.897597,259.494405 C300.270848,259.676955 300.560154,259.931219 300.765523,260.257202 C300.970893,260.583186 301.073576,260.946652 301.073576,261.347612 L300.46725,261.347612 C300.46725,260.861896 300.301001,260.471537 299.968498,260.176522 C299.635994,259.881507 299.189404,259.734001 298.628712,259.734001 C298.084319,259.734001 297.650768,259.855428 297.328044,260.098286 C297.00532,260.341144 296.843961,260.658158 296.843961,261.049338 C296.843961,261.41118 296.989022,261.706191 297.279147,261.934379 C297.569272,262.162568 298.033792,262.36386 298.67272,262.538261 C299.311647,262.712662 299.795726,262.89358 300.124969,263.081021 C300.454212,263.268461 300.701956,263.492572 300.868208,263.753358 C301.034459,264.014145 301.117584,264.322195 301.117584,264.677517 C301.117584,265.238209 300.893474,265.688059 300.445246,266.027082 C299.997019,266.366105 299.406182,266.535614 298.67272,266.535614 C298.170705,266.535614 297.71026,266.44597 297.291371,266.266679 C296.872482,266.087388 296.554653,265.836384 296.337874,265.513661 C296.121095,265.190937 296.012707,264.820951 296.012707,264.403692 L296.614144,264.403692 C296.614144,264.905707 296.801581,265.301771 297.176463,265.591896 C297.551344,265.882022 298.050091,266.027082 298.67272,266.027082 C299.226892,266.027082 299.671852,265.90484 300.007615,265.660353 C300.343378,265.415865 300.511258,265.091516 300.511258,264.687297 L300.511258,264.687297 Z" id="MEET-THEIR-NEEDS" fill="#6A6A6A"></path>
                <rect id="Rectangle-32" stroke="#DADADA" fill="#FFFFFF" x="34.5588737" y="279.475298" width="273.46587" height="273.465077"></rect>
                <path d="M257.64517,537.791969 L260.270955,544.07527 L262.906518,537.791969 L263.708434,537.791969 L263.708434,544.911414 L263.106997,544.911414 L263.106997,541.811326 L263.155895,538.633002 L260.505662,544.911414 L260.041137,544.911414 L257.400684,538.657451 L257.449581,541.791767 L257.449581,544.911414 L256.848145,544.911414 L256.848145,537.791969 L257.64517,537.791969 Z M270.774092,541.73798 C270.774092,542.393207 270.660814,542.968559 270.434256,543.464054 C270.207697,543.959549 269.884163,544.340944 269.463644,544.608251 C269.043126,544.875557 268.557418,545.009209 268.006505,545.009209 C267.175247,545.009209 266.503731,544.711753 265.991937,544.116833 C265.480143,543.521913 265.22425,542.719191 265.22425,541.708642 L265.22425,540.975182 C265.22425,540.326475 265.339157,539.751938 265.568976,539.251553 C265.798794,538.751168 266.123958,538.366513 266.544476,538.097577 C266.964995,537.828641 267.449074,537.694174 267.996726,537.694174 C268.544378,537.694174 269.027642,537.826196 269.44653,538.090242 C269.865419,538.354289 270.188953,538.727535 270.417142,539.20999 C270.64533,539.692446 270.764312,540.251499 270.774092,540.887167 L270.774092,541.73798 Z M270.172655,540.965403 C270.172655,540.108066 269.978698,539.43655 269.590777,538.950835 C269.202857,538.465119 268.671512,538.222265 267.996726,538.222265 C267.334979,538.222265 266.807709,538.465934 266.414899,538.95328 C266.022088,539.440625 265.825686,540.121105 265.825686,540.994741 L265.825686,541.73798 C265.825686,542.582277 266.021274,543.251349 266.412454,543.745214 C266.803634,544.239079 267.334979,544.486008 268.006505,544.486008 C268.687811,544.486008 269.219156,544.242339 269.600557,543.754993 C269.981958,543.267648 270.172655,542.588797 270.172655,541.718421 L270.172655,540.965403 Z M277.590374,544.911414 L276.988937,544.911414 L272.896234,538.818812 L272.896234,544.911414 L272.289908,544.911414 L272.289908,537.791969 L272.896234,537.791969 L276.993827,543.889461 L276.993827,537.791969 L277.590374,537.791969 L277.590374,544.911414 Z M280.133032,544.911414 L279.531596,544.911414 L279.531596,537.791969 L280.133032,537.791969 L280.133032,544.911414 Z M286.753725,538.305391 L284.31375,538.305391 L284.31375,544.911414 L283.712314,544.911414 L283.712314,538.305391 L281.277229,538.305391 L281.277229,537.791969 L286.753725,537.791969 L286.753725,538.305391 Z M293.027247,541.73798 C293.027247,542.393207 292.913969,542.968559 292.687411,543.464054 C292.460852,543.959549 292.137318,544.340944 291.7168,544.608251 C291.296281,544.875557 290.810573,545.009209 290.25966,545.009209 C289.428402,545.009209 288.756886,544.711753 288.245092,544.116833 C287.733298,543.521913 287.477405,542.719191 287.477405,541.708642 L287.477405,540.975182 C287.477405,540.326475 287.592312,539.751938 287.822131,539.251553 C288.051949,538.751168 288.377113,538.366513 288.797632,538.097577 C289.21815,537.828641 289.702229,537.694174 290.249881,537.694174 C290.797533,537.694174 291.280797,537.826196 291.699686,538.090242 C292.118574,538.354289 292.442108,538.727535 292.670297,539.20999 C292.898485,539.692446 293.017467,540.251499 293.027247,540.887167 L293.027247,541.73798 Z M292.42581,540.965403 C292.42581,540.108066 292.231853,539.43655 291.843933,538.950835 C291.456012,538.465119 290.924667,538.222265 290.249881,538.222265 C289.588134,538.222265 289.060864,538.465934 288.668054,538.95328 C288.275244,539.440625 288.078842,540.121105 288.078842,540.994741 L288.078842,541.73798 C288.078842,542.582277 288.274429,543.251349 288.665609,543.745214 C289.056789,544.239079 289.588134,544.486008 290.25966,544.486008 C290.940966,544.486008 291.472311,544.242339 291.853712,543.754993 C292.235113,543.267648 292.42581,542.588797 292.42581,541.718421 L292.42581,540.965403 Z M297.203075,541.948238 L295.13472,541.948238 L295.13472,544.911414 L294.528394,544.911414 L294.528394,537.791969 L296.841235,537.791969 C297.600777,537.791969 298.194058,537.976147 298.621097,538.344508 C299.048135,538.71287 299.261651,539.227916 299.261651,539.889663 C299.261651,540.34604 299.128,540.748623 298.860693,541.097426 C298.593387,541.446228 298.23481,541.687452 297.784953,541.821105 L299.564814,544.847847 L299.564814,544.911414 L298.92426,544.911414 L297.203075,541.948238 Z M295.13472,541.434817 L296.978148,541.434817 C297.483422,541.434817 297.889266,541.291386 298.19569,541.004521 C298.502115,540.717655 298.655325,540.34604 298.655325,539.889663 C298.655325,539.387648 298.495595,538.998103 298.176131,538.721017 C297.856667,538.443931 297.408447,538.305391 296.831456,538.305391 L295.13472,538.305391 L295.13472,541.434817 Z" id="MONITOR" fill="#6A6A6A"></path>
            </g>
        </g>
    </g>
</svg>